{
	"patcher" : 	{
		"fileversion" : 1,
		"appversion" : 		{
			"major" : 5,
			"minor" : 1,
			"revision" : 9
		}
,
		"rect" : [ 25.0, 69.0, 527.0, 681.0 ],
		"bglocked" : 0,
		"defrect" : [ 25.0, 69.0, 527.0, 681.0 ],
		"openrect" : [ 0.0, 0.0, 0.0, 0.0 ],
		"openinpresentation" : 0,
		"default_fontsize" : 9.0,
		"default_fontface" : 0,
		"default_fontname" : "Monaco",
		"gridonopen" : 0,
		"gridsize" : [ 10.0, 10.0 ],
		"gridsnaponopen" : 0,
		"toolbarvisible" : 1,
		"boxanimatetime" : 200,
		"imprint" : 0,
		"enablehscroll" : 1,
		"enablevscroll" : 1,
		"devicewidth" : 0.0,
		"boxes" : [ 			{
				"box" : 				{
					"maxclass" : "multislider",
					"patching_rect" : [ 230.0, 490.0, 225.0, 171.0 ],
					"numoutlets" : 2,
					"settype" : 0,
					"id" : "obj-51",
					"setstyle" : 1,
					"outlettype" : [ "", "" ],
					"candycane" : 6,
					"size" : 6,
					"setminmax" : [ 0.0, 255.0 ],
					"numinlets" : 1
				}

			}
, 			{
				"box" : 				{
					"maxclass" : "toggle",
					"patching_rect" : [ 300.0, 470.0, 20.0, 20.0 ],
					"numoutlets" : 1,
					"id" : "obj-49",
					"outlettype" : [ "int" ],
					"numinlets" : 1
				}

			}
, 			{
				"box" : 				{
					"maxclass" : "toggle",
					"patching_rect" : [ 280.0, 470.0, 20.0, 20.0 ],
					"numoutlets" : 1,
					"id" : "obj-47",
					"outlettype" : [ "int" ],
					"numinlets" : 1
				}

			}
, 			{
				"box" : 				{
					"maxclass" : "newobj",
					"text" : "p",
					"patching_rect" : [ 230.0, 470.0, 46.0, 19.0 ],
					"numoutlets" : 3,
					"id" : "obj-44",
					"fontname" : "Monaco",
					"outlettype" : [ "", "int", "int" ],
					"fontsize" : 9.0,
					"numinlets" : 1,
					"patcher" : 					{
						"fileversion" : 1,
						"appversion" : 						{
							"major" : 5,
							"minor" : 1,
							"revision" : 9
						}
,
						"rect" : [ 357.0, 146.0, 221.0, 289.0 ],
						"bglocked" : 0,
						"defrect" : [ 357.0, 146.0, 221.0, 289.0 ],
						"openrect" : [ 0.0, 0.0, 0.0, 0.0 ],
						"openinpresentation" : 0,
						"default_fontsize" : 9.0,
						"default_fontface" : 0,
						"default_fontname" : "Monaco",
						"gridonopen" : 0,
						"gridsize" : [ 10.0, 10.0 ],
						"gridsnaponopen" : 0,
						"toolbarvisible" : 1,
						"boxanimatetime" : 200,
						"imprint" : 0,
						"enablehscroll" : 1,
						"enablevscroll" : 1,
						"devicewidth" : 0.0,
						"boxes" : [ 							{
								"box" : 								{
									"maxclass" : "outlet",
									"patching_rect" : [ 130.0, 250.0, 25.0, 25.0 ],
									"numoutlets" : 0,
									"id" : "obj-15",
									"numinlets" : 1,
									"comment" : ""
								}

							}
, 							{
								"box" : 								{
									"maxclass" : "newobj",
									"text" : "change",
									"patching_rect" : [ 130.0, 200.0, 46.0, 19.0 ],
									"numoutlets" : 3,
									"id" : "obj-12",
									"fontname" : "Monaco",
									"outlettype" : [ "", "int", "int" ],
									"fontsize" : 9.0,
									"numinlets" : 1
								}

							}
, 							{
								"box" : 								{
									"maxclass" : "newobj",
									"text" : "== 0",
									"patching_rect" : [ 130.0, 220.0, 32.5, 19.0 ],
									"numoutlets" : 1,
									"id" : "obj-13",
									"fontname" : "Monaco",
									"outlettype" : [ "int" ],
									"fontsize" : 9.0,
									"numinlets" : 2
								}

							}
, 							{
								"box" : 								{
									"maxclass" : "newobj",
									"text" : "& 1",
									"patching_rect" : [ 130.0, 180.0, 32.5, 19.0 ],
									"numoutlets" : 1,
									"id" : "obj-14",
									"fontname" : "Monaco",
									"outlettype" : [ "int" ],
									"fontsize" : 9.0,
									"numinlets" : 2
								}

							}
, 							{
								"box" : 								{
									"maxclass" : "newobj",
									"text" : "change",
									"patching_rect" : [ 80.0, 200.0, 46.0, 19.0 ],
									"numoutlets" : 3,
									"id" : "obj-11",
									"fontname" : "Monaco",
									"outlettype" : [ "", "int", "int" ],
									"fontsize" : 9.0,
									"numinlets" : 1
								}

							}
, 							{
								"box" : 								{
									"maxclass" : "newobj",
									"text" : "== 0",
									"patching_rect" : [ 80.0, 220.0, 32.5, 19.0 ],
									"numoutlets" : 1,
									"id" : "obj-10",
									"fontname" : "Monaco",
									"outlettype" : [ "int" ],
									"fontsize" : 9.0,
									"numinlets" : 2
								}

							}
, 							{
								"box" : 								{
									"maxclass" : "newobj",
									"text" : "& 2",
									"patching_rect" : [ 80.0, 180.0, 32.5, 19.0 ],
									"numoutlets" : 1,
									"id" : "obj-9",
									"fontname" : "Monaco",
									"outlettype" : [ "int" ],
									"fontsize" : 9.0,
									"numinlets" : 2
								}

							}
, 							{
								"box" : 								{
									"maxclass" : "newobj",
									"text" : "t i i",
									"patching_rect" : [ 90.0, 150.0, 38.0, 19.0 ],
									"numoutlets" : 2,
									"id" : "obj-8",
									"fontname" : "Monaco",
									"outlettype" : [ "int", "int" ],
									"fontsize" : 9.0,
									"numinlets" : 1
								}

							}
, 							{
								"box" : 								{
									"maxclass" : "outlet",
									"patching_rect" : [ 80.0, 250.0, 25.0, 25.0 ],
									"numoutlets" : 0,
									"id" : "obj-7",
									"numinlets" : 1,
									"comment" : ""
								}

							}
, 							{
								"box" : 								{
									"maxclass" : "outlet",
									"patching_rect" : [ 30.0, 250.0, 25.0, 25.0 ],
									"numoutlets" : 0,
									"id" : "obj-1",
									"numinlets" : 1,
									"comment" : ""
								}

							}
, 							{
								"box" : 								{
									"maxclass" : "newobj",
									"text" : "zl slice 6",
									"patching_rect" : [ 30.0, 120.0, 65.0, 19.0 ],
									"numoutlets" : 2,
									"id" : "obj-42",
									"fontname" : "Monaco",
									"outlettype" : [ "", "" ],
									"fontsize" : 9.0,
									"numinlets" : 2
								}

							}
, 							{
								"box" : 								{
									"maxclass" : "newobj",
									"text" : "zl slice 1",
									"patching_rect" : [ 30.0, 90.0, 65.0, 19.0 ],
									"numoutlets" : 2,
									"id" : "obj-41",
									"fontname" : "Monaco",
									"outlettype" : [ "", "" ],
									"fontsize" : 9.0,
									"numinlets" : 2
								}

							}
, 							{
								"box" : 								{
									"maxclass" : "newobj",
									"text" : "zl slice 8",
									"patching_rect" : [ 30.0, 70.0, 66.0, 19.0 ],
									"numoutlets" : 2,
									"id" : "obj-38",
									"fontname" : "Monaco",
									"outlettype" : [ "", "" ],
									"fontsize" : 9.0,
									"numinlets" : 2
								}

							}
, 							{
								"box" : 								{
									"maxclass" : "inlet",
									"patching_rect" : [ 30.0, 30.0, 25.0, 25.0 ],
									"numoutlets" : 1,
									"id" : "obj-43",
									"outlettype" : [ "" ],
									"numinlets" : 0,
									"comment" : ""
								}

							}
 ],
						"lines" : [ 							{
								"patchline" : 								{
									"source" : [ "obj-43", 0 ],
									"destination" : [ "obj-38", 0 ],
									"hidden" : 0,
									"midpoints" : [  ]
								}

							}
, 							{
								"patchline" : 								{
									"source" : [ "obj-38", 0 ],
									"destination" : [ "obj-41", 0 ],
									"hidden" : 0,
									"midpoints" : [  ]
								}

							}
, 							{
								"patchline" : 								{
									"source" : [ "obj-8", 0 ],
									"destination" : [ "obj-9", 0 ],
									"hidden" : 0,
									"midpoints" : [  ]
								}

							}
, 							{
								"patchline" : 								{
									"source" : [ "obj-9", 0 ],
									"destination" : [ "obj-11", 0 ],
									"hidden" : 0,
									"midpoints" : [  ]
								}

							}
, 							{
								"patchline" : 								{
									"source" : [ "obj-11", 0 ],
									"destination" : [ "obj-10", 0 ],
									"hidden" : 0,
									"midpoints" : [  ]
								}

							}
, 							{
								"patchline" : 								{
									"source" : [ "obj-12", 0 ],
									"destination" : [ "obj-13", 0 ],
									"hidden" : 0,
									"midpoints" : [  ]
								}

							}
, 							{
								"patchline" : 								{
									"source" : [ "obj-8", 1 ],
									"destination" : [ "obj-14", 0 ],
									"hidden" : 0,
									"midpoints" : [  ]
								}

							}
, 							{
								"patchline" : 								{
									"source" : [ "obj-14", 0 ],
									"destination" : [ "obj-12", 0 ],
									"hidden" : 0,
									"midpoints" : [  ]
								}

							}
, 							{
								"patchline" : 								{
									"source" : [ "obj-10", 0 ],
									"destination" : [ "obj-7", 0 ],
									"hidden" : 0,
									"midpoints" : [  ]
								}

							}
, 							{
								"patchline" : 								{
									"source" : [ "obj-13", 0 ],
									"destination" : [ "obj-15", 0 ],
									"hidden" : 0,
									"midpoints" : [  ]
								}

							}
, 							{
								"patchline" : 								{
									"source" : [ "obj-41", 1 ],
									"destination" : [ "obj-42", 0 ],
									"hidden" : 0,
									"midpoints" : [  ]
								}

							}
, 							{
								"patchline" : 								{
									"source" : [ "obj-42", 1 ],
									"destination" : [ "obj-8", 0 ],
									"hidden" : 0,
									"midpoints" : [  ]
								}

							}
, 							{
								"patchline" : 								{
									"source" : [ "obj-42", 0 ],
									"destination" : [ "obj-1", 0 ],
									"hidden" : 0,
									"midpoints" : [  ]
								}

							}
 ]
					}
,
					"saved_object_attributes" : 					{
						"default_fontname" : "Monaco",
						"fontname" : "Monaco",
						"default_fontsize" : 9.0,
						"globalpatchername" : "",
						"fontface" : 0,
						"fontsize" : 9.0,
						"default_fontface" : 0
					}

				}

			}
, 			{
				"box" : 				{
					"maxclass" : "comment",
					"text" : "settings:",
					"patching_rect" : [ 170.0, 360.0, 59.0, 19.0 ],
					"numoutlets" : 0,
					"id" : "obj-12",
					"fontname" : "Monaco",
					"fontsize" : 9.0,
					"numinlets" : 1
				}

			}
, 			{
				"box" : 				{
					"maxclass" : "comment",
					"text" : "sensors:",
					"patching_rect" : [ 170.0, 430.0, 54.0, 19.0 ],
					"numoutlets" : 0,
					"id" : "obj-9",
					"fontname" : "Monaco",
					"fontsize" : 9.0,
					"numinlets" : 1
				}

			}
, 			{
				"box" : 				{
					"maxclass" : "comment",
					"text" : "pwm channels 0-5:",
					"patching_rect" : [ 250.0, 10.0, 102.0, 19.0 ],
					"numoutlets" : 0,
					"id" : "obj-5",
					"fontname" : "Monaco",
					"fontsize" : 9.0,
					"numinlets" : 1
				}

			}
, 			{
				"box" : 				{
					"maxclass" : "comment",
					"text" : "settings:",
					"patching_rect" : [ 250.0, 170.0, 59.0, 19.0 ],
					"numoutlets" : 0,
					"id" : "obj-4",
					"fontname" : "Monaco",
					"fontsize" : 9.0,
					"numinlets" : 1
				}

			}
, 			{
				"box" : 				{
					"maxclass" : "message",
					"text" : "6 0 30 63 100 0 0 7",
					"patching_rect" : [ 250.0, 380.0, 219.0, 17.0 ],
					"numoutlets" : 1,
					"id" : "obj-54",
					"fontname" : "Monaco",
					"outlettype" : [ "" ],
					"fontsize" : 9.0,
					"numinlets" : 2
				}

			}
, 			{
				"box" : 				{
					"maxclass" : "button",
					"patching_rect" : [ 230.0, 380.0, 20.0, 20.0 ],
					"numoutlets" : 1,
					"id" : "obj-55",
					"outlettype" : [ "bang" ],
					"numinlets" : 1
				}

			}
, 			{
				"box" : 				{
					"maxclass" : "newobj",
					"text" : "match 6 nn nn nn nn nn nn 7",
					"patching_rect" : [ 230.0, 360.0, 156.0, 19.0 ],
					"numoutlets" : 1,
					"id" : "obj-56",
					"fontname" : "Monaco",
					"outlettype" : [ "" ],
					"fontsize" : 9.0,
					"numinlets" : 1
				}

			}
, 			{
				"box" : 				{
					"maxclass" : "comment",
					"text" : "all analog off",
					"patching_rect" : [ 380.0, 210.0, 86.0, 19.0 ],
					"numoutlets" : 0,
					"id" : "obj-53",
					"fontname" : "Monaco",
					"fontsize" : 9.0,
					"numinlets" : 1
				}

			}
, 			{
				"box" : 				{
					"maxclass" : "message",
					"text" : "12 0 30 0 100 0 0 13",
					"patching_rect" : [ 250.0, 210.0, 120.0, 17.0 ],
					"numoutlets" : 1,
					"id" : "obj-52",
					"fontname" : "Monaco",
					"outlettype" : [ "" ],
					"fontsize" : 9.0,
					"numinlets" : 2
				}

			}
, 			{
				"box" : 				{
					"maxclass" : "comment",
					"text" : "all analog on",
					"patching_rect" : [ 380.0, 190.0, 81.0, 19.0 ],
					"numoutlets" : 0,
					"id" : "obj-48",
					"fontname" : "Monaco",
					"fontsize" : 9.0,
					"numinlets" : 1
				}

			}
, 			{
				"box" : 				{
					"maxclass" : "message",
					"text" : "4 97 96 95 116 90 98 3 5",
					"patching_rect" : [ 250.0, 450.0, 219.0, 17.0 ],
					"numoutlets" : 1,
					"id" : "obj-35",
					"fontname" : "Monaco",
					"outlettype" : [ "" ],
					"fontsize" : 9.0,
					"numinlets" : 2
				}

			}
, 			{
				"box" : 				{
					"maxclass" : "button",
					"patching_rect" : [ 230.0, 450.0, 20.0, 20.0 ],
					"numoutlets" : 1,
					"id" : "obj-32",
					"outlettype" : [ "bang" ],
					"numinlets" : 1
				}

			}
, 			{
				"box" : 				{
					"maxclass" : "newobj",
					"text" : "match 4 nn nn nn nn nn nn nn 5",
					"patching_rect" : [ 230.0, 430.0, 173.0, 19.0 ],
					"numoutlets" : 1,
					"id" : "obj-33",
					"fontname" : "Monaco",
					"outlettype" : [ "" ],
					"fontsize" : 9.0,
					"numinlets" : 1
				}

			}
, 			{
				"box" : 				{
					"maxclass" : "message",
					"text" : "port j",
					"patching_rect" : [ 10.0, 260.0, 43.0, 17.0 ],
					"numoutlets" : 1,
					"id" : "obj-28",
					"fontname" : "Monaco",
					"outlettype" : [ "" ],
					"fontsize" : 9.0,
					"numinlets" : 2
				}

			}
, 			{
				"box" : 				{
					"maxclass" : "message",
					"text" : "close",
					"patching_rect" : [ 10.0, 280.0, 38.0, 17.0 ],
					"numoutlets" : 1,
					"id" : "obj-27",
					"fontname" : "Monaco",
					"outlettype" : [ "" ],
					"fontsize" : 9.0,
					"numinlets" : 2
				}

			}
, 			{
				"box" : 				{
					"maxclass" : "message",
					"text" : "12 0 30 63 100 0 0 13",
					"patching_rect" : [ 250.0, 190.0, 124.0, 17.0 ],
					"numoutlets" : 1,
					"id" : "obj-22",
					"fontname" : "Monaco",
					"outlettype" : [ "" ],
					"fontsize" : 9.0,
					"numinlets" : 2
				}

			}
, 			{
				"box" : 				{
					"maxclass" : "message",
					"text" : "10 8 0 0 0 0 0 11",
					"patching_rect" : [ 250.0, 130.0, 168.0, 17.0 ],
					"numoutlets" : 1,
					"id" : "obj-20",
					"fontname" : "Monaco",
					"outlettype" : [ "" ],
					"fontsize" : 9.0,
					"numinlets" : 2
				}

			}
, 			{
				"box" : 				{
					"maxclass" : "multislider",
					"patching_rect" : [ 250.0, 30.0, 145.0, 68.0 ],
					"numoutlets" : 2,
					"settype" : 0,
					"id" : "obj-16",
					"setstyle" : 1,
					"outlettype" : [ "", "" ],
					"size" : 6,
					"setminmax" : [ 0.0, 255.0 ],
					"contdata" : 1,
					"numinlets" : 1
				}

			}
, 			{
				"box" : 				{
					"maxclass" : "message",
					"text" : "10 $1 $2 $3 $4 $5 $6 11",
					"patching_rect" : [ 250.0, 100.0, 135.0, 17.0 ],
					"numoutlets" : 1,
					"id" : "obj-15",
					"fontname" : "Monaco",
					"outlettype" : [ "" ],
					"fontsize" : 9.0,
					"numinlets" : 2
				}

			}
, 			{
				"box" : 				{
					"maxclass" : "toggle",
					"patching_rect" : [ 50.0, 320.0, 20.0, 20.0 ],
					"numoutlets" : 1,
					"id" : "obj-13",
					"outlettype" : [ "int" ],
					"numinlets" : 1
				}

			}
, 			{
				"box" : 				{
					"maxclass" : "newobj",
					"text" : "gate",
					"patching_rect" : [ 50.0, 340.0, 32.5, 19.0 ],
					"numoutlets" : 1,
					"id" : "obj-11",
					"fontname" : "Monaco",
					"outlettype" : [ "" ],
					"fontsize" : 9.0,
					"numinlets" : 2
				}

			}
, 			{
				"box" : 				{
					"maxclass" : "newobj",
					"text" : "print debug",
					"patching_rect" : [ 50.0, 360.0, 70.0, 19.0 ],
					"numoutlets" : 0,
					"id" : "obj-10",
					"fontname" : "Monaco",
					"fontsize" : 9.0,
					"numinlets" : 1
				}

			}
, 			{
				"box" : 				{
					"maxclass" : "newobj",
					"text" : "loadmess 1",
					"patching_rect" : [ 60.0, 200.0, 65.0, 19.0 ],
					"numoutlets" : 1,
					"id" : "obj-7",
					"fontname" : "Monaco",
					"outlettype" : [ "" ],
					"fontsize" : 9.0,
					"numinlets" : 1
				}

			}
, 			{
				"box" : 				{
					"maxclass" : "newobj",
					"text" : "metro 2",
					"patching_rect" : [ 60.0, 220.0, 48.0, 19.0 ],
					"numoutlets" : 1,
					"id" : "obj-6",
					"fontname" : "Monaco",
					"outlettype" : [ "bang" ],
					"fontsize" : 9.0,
					"numinlets" : 2
				}

			}
, 			{
				"box" : 				{
					"maxclass" : "message",
					"text" : "print",
					"patching_rect" : [ 10.0, 240.0, 38.0, 17.0 ],
					"numoutlets" : 1,
					"id" : "obj-3",
					"fontname" : "Monaco",
					"outlettype" : [ "" ],
					"fontsize" : 9.0,
					"numinlets" : 2
				}

			}
, 			{
				"box" : 				{
					"maxclass" : "newobj",
					"text" : "serial MATE-SILVER0007-SPP 38400",
					"patching_rect" : [ 60.0, 270.0, 183.0, 19.0 ],
					"numoutlets" : 2,
					"id" : "obj-1",
					"fontname" : "Monaco",
					"outlettype" : [ "int", "" ],
					"fontsize" : 9.0,
					"numinlets" : 1
				}

			}
 ],
		"lines" : [ 			{
				"patchline" : 				{
					"source" : [ "obj-7", 0 ],
					"destination" : [ "obj-6", 0 ],
					"hidden" : 0,
					"midpoints" : [  ]
				}

			}
, 			{
				"patchline" : 				{
					"source" : [ "obj-11", 0 ],
					"destination" : [ "obj-10", 0 ],
					"hidden" : 0,
					"midpoints" : [  ]
				}

			}
, 			{
				"patchline" : 				{
					"source" : [ "obj-13", 0 ],
					"destination" : [ "obj-11", 0 ],
					"hidden" : 0,
					"midpoints" : [  ]
				}

			}
, 			{
				"patchline" : 				{
					"source" : [ "obj-16", 0 ],
					"destination" : [ "obj-15", 0 ],
					"hidden" : 0,
					"midpoints" : [  ]
				}

			}
, 			{
				"patchline" : 				{
					"source" : [ "obj-15", 0 ],
					"destination" : [ "obj-20", 1 ],
					"hidden" : 0,
					"midpoints" : [  ]
				}

			}
, 			{
				"patchline" : 				{
					"source" : [ "obj-33", 0 ],
					"destination" : [ "obj-32", 0 ],
					"hidden" : 0,
					"midpoints" : [  ]
				}

			}
, 			{
				"patchline" : 				{
					"source" : [ "obj-33", 0 ],
					"destination" : [ "obj-35", 1 ],
					"hidden" : 0,
					"midpoints" : [  ]
				}

			}
, 			{
				"patchline" : 				{
					"source" : [ "obj-56", 0 ],
					"destination" : [ "obj-55", 0 ],
					"hidden" : 0,
					"midpoints" : [  ]
				}

			}
, 			{
				"patchline" : 				{
					"source" : [ "obj-56", 0 ],
					"destination" : [ "obj-54", 1 ],
					"hidden" : 0,
					"midpoints" : [  ]
				}

			}
, 			{
				"patchline" : 				{
					"source" : [ "obj-44", 1 ],
					"destination" : [ "obj-47", 0 ],
					"hidden" : 0,
					"midpoints" : [  ]
				}

			}
, 			{
				"patchline" : 				{
					"source" : [ "obj-44", 2 ],
					"destination" : [ "obj-49", 0 ],
					"hidden" : 0,
					"midpoints" : [  ]
				}

			}
, 			{
				"patchline" : 				{
					"source" : [ "obj-44", 0 ],
					"destination" : [ "obj-51", 0 ],
					"hidden" : 0,
					"midpoints" : [  ]
				}

			}
, 			{
				"patchline" : 				{
					"source" : [ "obj-33", 0 ],
					"destination" : [ "obj-44", 0 ],
					"hidden" : 0,
					"midpoints" : [  ]
				}

			}
, 			{
				"patchline" : 				{
					"source" : [ "obj-1", 0 ],
					"destination" : [ "obj-56", 0 ],
					"hidden" : 0,
					"midpoints" : [  ]
				}

			}
, 			{
				"patchline" : 				{
					"source" : [ "obj-1", 0 ],
					"destination" : [ "obj-11", 1 ],
					"hidden" : 0,
					"midpoints" : [  ]
				}

			}
, 			{
				"patchline" : 				{
					"source" : [ "obj-3", 0 ],
					"destination" : [ "obj-1", 0 ],
					"hidden" : 0,
					"midpoints" : [  ]
				}

			}
, 			{
				"patchline" : 				{
					"source" : [ "obj-6", 0 ],
					"destination" : [ "obj-1", 0 ],
					"hidden" : 0,
					"midpoints" : [  ]
				}

			}
, 			{
				"patchline" : 				{
					"source" : [ "obj-22", 0 ],
					"destination" : [ "obj-1", 0 ],
					"hidden" : 0,
					"midpoints" : [  ]
				}

			}
, 			{
				"patchline" : 				{
					"source" : [ "obj-27", 0 ],
					"destination" : [ "obj-1", 0 ],
					"hidden" : 0,
					"midpoints" : [  ]
				}

			}
, 			{
				"patchline" : 				{
					"source" : [ "obj-28", 0 ],
					"destination" : [ "obj-1", 0 ],
					"hidden" : 0,
					"midpoints" : [  ]
				}

			}
, 			{
				"patchline" : 				{
					"source" : [ "obj-1", 0 ],
					"destination" : [ "obj-33", 0 ],
					"hidden" : 0,
					"midpoints" : [  ]
				}

			}
, 			{
				"patchline" : 				{
					"source" : [ "obj-15", 0 ],
					"destination" : [ "obj-1", 0 ],
					"hidden" : 0,
					"midpoints" : [  ]
				}

			}
, 			{
				"patchline" : 				{
					"source" : [ "obj-52", 0 ],
					"destination" : [ "obj-1", 0 ],
					"hidden" : 0,
					"midpoints" : [  ]
				}

			}
 ]
	}

}
