#N canvas 339 134 649 499 10;
#X floatatom -267 -32 5 0 0 0 - - -;
#X floatatom -231 -32 5 0 0 0 - - -;
#X floatatom -192 -33 5 0 0 0 - - -;
#X obj -303 11 translateXYZ;
#X floatatom -195 108 5 0 0 0 - - -;
#X obj -260 81 rotateXYZ;
#X floatatom -244 51 5 0 0 0 - - -;
#X floatatom -208 51 5 0 0 0 - - -;
#X floatatom -170 51 5 0 0 0 - - -;
#X obj -131 -31 sin;
#X obj -85 -25 cos;
#X obj -42 -19 sin;
#X msg -190 -63 -11;
#X obj -191 -93 loadbang;
#X obj -328 -15 separator;
#X obj -326 -162 inlet;
#X obj -240 -164 inlet;
#X obj -176 -162 inlet;
#X obj -82 -114 inlet;
#X obj -246 155 cube 3;
#X connect 0 0 3 1;
#X connect 1 0 3 2;
#X connect 2 0 3 3;
#X connect 3 0 5 0;
#X connect 4 0 19 1;
#X connect 5 0 19 0;
#X connect 6 0 5 1;
#X connect 7 0 5 2;
#X connect 8 0 5 3;
#X connect 9 0 6 0;
#X connect 10 0 7 0;
#X connect 11 0 8 0;
#X connect 12 0 2 0;
#X connect 13 0 12 0;
#X connect 14 0 3 0;
#X connect 15 0 14 0;
#X connect 16 0 0 0;
#X connect 17 0 1 0;
#X connect 18 0 9 0;
#X connect 18 0 10 0;
#X connect 18 0 11 0;
