#N canvas 677 80 322 163 10;
#N canvas 528 286 1035 684 theSmallChaos 1;
#X obj -515 -340 gemhead;
#X msg -467 204 create \, 1;
#X msg -460 224 destroy;
#X obj -468 283 gemwin;
#X msg -579 252 reset;
#X msg -353 237 offset 100 100;
#X obj -468 155 bng 15 250 50 0 empty empty empty 17 7 0 10 -262144
-1 -1;
#X obj -467 180 t b b;
#X obj -490 -269 pix_delay;
#X msg -412 -304 3;
#X obj -514 -225 pix_texture;
#X obj -515 -310 pix_video;
#X msg -630 -335 dimen 1024 768;
#X floatatom -60 -254 5 0 0 0 - - -;
#X obj -58 -275 line;
#X msg -74 -304 0 0;
#X msg -186 280 fullscreen \$1;
#X obj -61 69 gemkeyboard;
#X obj -200 191 tgl 15 1 empty empty empty 0 -6 0 10 -262144 -1 -1
1 1;
#X msg -200 209 menubar \$1;
#X obj -214 163 t b b b;
#X floatatom 20 106 5 0 0 0 - - -;
#X obj -201 136 select 46;
#X obj -66 116 select 3;
#X obj -61 204 tgl 15 1 empty empty empty 0 -6 0 10 -262144 -1 -1 0
1;
#X obj -78 161 t b b b;
#X floatatom -70 249 5 0 0 0 - - -;
#X msg -563 184 create;
#X msg -21 -302 17000 1e+06;
#N canvas 0 22 450 300 theSmallChaos 0;
#X restore -277 -332 pd theSmallChaos;
#X obj -551 96 r start;
#X obj -557 139 r stop;
#X obj -22 -341 r start;
#X obj -465 -56 videoart1_abstraction;
#X floatatom -445 -84 5 0 0 0 - - -;
#X floatatom -398 -84 5 0 0 0 - - -;
#X obj -431 -175 loadbang;
#X msg -444 -111 -6;
#X msg -398 -109 6;
#X obj -321 -57 videoart1_abstraction;
#X floatatom -301 -85 5 0 0 0 - - -;
#X floatatom -254 -85 5 0 0 0 - - -;
#X obj -287 -176 loadbang;
#X msg -254 -110 6;
#X obj -167 -56 videoart1_abstraction;
#X floatatom -147 -84 5 0 0 0 - - -;
#X floatatom -100 -84 5 0 0 0 - - -;
#X obj -133 -175 loadbang;
#X msg -300 -112 6;
#X msg -146 -111 6;
#X msg -100 -109 -6;
#X obj -11 -57 videoart1_abstraction;
#X floatatom 9 -85 5 0 0 0 - - -;
#X floatatom 56 -85 5 0 0 0 - - -;
#X obj 23 -176 loadbang;
#X msg 56 -110 -6;
#X msg 10 -112 -6;
#X obj 141 -55 videoart1_abstraction;
#X floatatom 161 -83 5 0 0 0 - - -;
#X floatatom 208 -83 5 0 0 0 - - -;
#X obj 175 -174 loadbang;
#X msg 162 -111 0;
#X msg 208 -108 0;
#X obj -356 -93 + 1;
#X obj -200 -84 + 2;
#X obj -46 -84 + 3;
#X obj 110 -84 + 4;
#X obj 263 -84 + 5;
#X connect 0 0 11 0;
#X connect 1 0 3 0;
#X connect 2 0 3 0;
#X connect 4 0 3 0;
#X connect 5 0 3 0;
#X connect 6 0 7 0;
#X connect 7 0 1 0;
#X connect 7 1 2 0;
#X connect 9 0 8 1;
#X connect 10 0 33 0;
#X connect 10 0 39 0;
#X connect 10 0 44 0;
#X connect 10 0 51 0;
#X connect 10 0 57 0;
#X connect 11 0 10 0;
#X connect 12 0 11 0;
#X connect 13 0 63 0;
#X connect 13 0 64 0;
#X connect 13 0 65 0;
#X connect 13 0 66 0;
#X connect 13 0 67 0;
#X connect 14 0 13 0;
#X connect 15 0 14 0;
#X connect 16 0 3 0;
#X connect 17 0 21 0;
#X connect 17 0 22 0;
#X connect 17 0 23 0;
#X connect 18 0 19 0;
#X connect 19 0 3 0;
#X connect 20 0 1 0;
#X connect 20 1 18 0;
#X connect 20 2 2 0;
#X connect 22 0 20 0;
#X connect 23 0 25 0;
#X connect 24 0 26 0;
#X connect 25 0 1 0;
#X connect 25 1 24 0;
#X connect 25 2 2 0;
#X connect 26 0 16 0;
#X connect 27 0 3 0;
#X connect 28 0 14 0;
#X connect 30 0 6 0;
#X connect 31 0 2 0;
#X connect 32 0 28 0;
#X connect 34 0 33 1;
#X connect 35 0 33 2;
#X connect 36 0 37 0;
#X connect 36 0 38 0;
#X connect 37 0 34 0;
#X connect 38 0 35 0;
#X connect 40 0 39 1;
#X connect 41 0 39 2;
#X connect 42 0 48 0;
#X connect 42 0 43 0;
#X connect 43 0 41 0;
#X connect 45 0 44 1;
#X connect 46 0 44 2;
#X connect 47 0 49 0;
#X connect 47 0 50 0;
#X connect 48 0 40 0;
#X connect 49 0 45 0;
#X connect 50 0 46 0;
#X connect 52 0 51 1;
#X connect 53 0 51 2;
#X connect 54 0 56 0;
#X connect 54 0 55 0;
#X connect 55 0 53 0;
#X connect 56 0 52 0;
#X connect 58 0 57 1;
#X connect 59 0 57 2;
#X connect 60 0 61 0;
#X connect 60 0 62 0;
#X connect 61 0 58 0;
#X connect 62 0 59 0;
#X connect 63 0 33 3;
#X connect 64 0 39 3;
#X connect 65 0 44 3;
#X connect 66 0 51 3;
#X connect 67 0 57 3;
#X restore -87 25 pd theSmallChaos;
#X obj -147 25 s start;
#X obj -144 -17 bng 15 250 50 0 empty empty empty 17 7 0 10 -262144
-1 -1;
#X obj 26 24 s stop;
#X obj 24 -15 bng 15 250 50 0 empty empty empty 17 7 0 10 -262144 -1
-1;
#X connect 2 0 1 0;
#X connect 4 0 3 0;
