#N canvas 736 22 653 517 10;
#X obj 40 30 inlet;
#X obj 55 467 outlet~;
#X obj 203 469 outlet;
#X text 56 489 signal;
#X text 190 490 bang when finished;
#X obj 448 34 loadbang;
#X text 19 7 list of integers;
#X obj 481 359 > 0;
#X obj 531 384 f;
#X obj 557 384 + 1;
#X obj 481 383 t f b;
#X obj 388 320 & 128;
#X obj 425 320 & 64;
#X obj 456 320 & 32;
#X obj 487 320 & 16;
#X obj 518 320 & 8;
#X obj 543 320 & 4;
#X obj 568 320 & 2;
#X obj 593 320 & 1;
#X msg 448 94 resize \$1;
#X obj 390 219 until;
#X obj 390 240 list append;
#X obj 390 261 list split 1;
#X obj 483 254 t b;
#X text 191 20 \$1 - baudrate;
#X text 191 36 \$2 - max message length;
#X obj 448 54 f \$2;
#X text 480 74 10bits per byte;
#X obj 252 284 table \$0-serial;
#X obj 448 114 s \$0-serial;
#X obj 55 320 tabread~ \$0-serial;
#X obj 481 465 tabwrite \$0-serial;
#X obj 390 190 t b l b;
#X obj 390 284 t b f f f f f f f f b;
#X obj 481 405 t b f;
#X obj 481 445 -;
#X msg 481 425 1;
#X text 226 228 audio to serial;
#X msg 203 384 set \$1 1 0 1;
#X obj 448 74 * 10;
#X msg 57 207 0;
#X obj 55 273 vline~;
#X obj 40 99 list length;
#X obj 40 57 t l l;
#X obj 40 118 * 10;
#X obj 40 233 pack f f;
#X obj 40 179 t f b f f;
#X obj 132 109 loadbang;
#X obj 132 147 t b f;
#X obj 132 185 /;
#X msg 132 166 1000;
#X obj 117 208 *;
#X obj 132 128 f \$1;
#X text 226 247 f.olofsson 2012-11-04;
#X obj 203 419 threshold~ 60 1 0 1;
#X msg 546 215 0;
#X msg 345 353 0;
#X msg 345 327 1;
#X connect 0 0 43 0;
#X connect 5 0 26 0;
#X connect 7 0 10 0;
#X connect 8 0 9 0;
#X connect 8 0 31 1;
#X connect 9 0 8 1;
#X connect 10 0 34 0;
#X connect 10 1 8 0;
#X connect 11 0 7 0;
#X connect 12 0 7 0;
#X connect 13 0 7 0;
#X connect 14 0 7 0;
#X connect 15 0 7 0;
#X connect 16 0 7 0;
#X connect 17 0 7 0;
#X connect 18 0 7 0;
#X connect 19 0 29 0;
#X connect 20 0 21 0;
#X connect 21 0 22 0;
#X connect 22 0 33 0;
#X connect 22 1 21 1;
#X connect 22 2 23 0;
#X connect 23 0 20 1;
#X connect 26 0 39 0;
#X connect 30 0 1 0;
#X connect 32 0 20 0;
#X connect 32 1 21 1;
#X connect 32 2 55 0;
#X connect 33 0 57 0;
#X connect 33 1 11 0;
#X connect 33 2 12 0;
#X connect 33 3 13 0;
#X connect 33 4 14 0;
#X connect 33 5 15 0;
#X connect 33 6 16 0;
#X connect 33 7 17 0;
#X connect 33 8 18 0;
#X connect 33 9 56 0;
#X connect 34 0 36 0;
#X connect 34 1 35 1;
#X connect 35 0 31 0;
#X connect 36 0 35 0;
#X connect 38 0 54 0;
#X connect 39 0 19 0;
#X connect 40 0 41 0;
#X connect 40 0 54 1;
#X connect 41 0 30 0;
#X connect 41 0 54 0;
#X connect 42 0 44 0;
#X connect 43 0 42 0;
#X connect 43 1 32 0;
#X connect 44 0 46 0;
#X connect 45 0 41 0;
#X connect 46 0 45 0;
#X connect 46 1 40 0;
#X connect 46 2 38 0;
#X connect 46 3 51 0;
#X connect 47 0 52 0;
#X connect 48 0 50 0;
#X connect 48 1 49 1;
#X connect 49 0 51 1;
#X connect 50 0 49 0;
#X connect 51 0 45 1;
#X connect 52 0 48 0;
#X connect 54 0 2 0;
#X connect 55 0 8 1;
#X connect 56 0 10 0;
#X connect 57 0 10 0;
