#N canvas 308 179 717 571 10;
#X obj 47 244 dac~;
#X obj 60 210 *~;
#X obj 109 221 tgl 15 0 empty empty empty 17 7 0 10 -262144 -1 -1 1
1;
#X text 130 222 turn on to hear the data signal. WARNING: it is loud
;
#X text 299 26 \$1 - baudrate;
#X text 295 9 arguments:;
#X text 206 125 use this to trigger a new command for fastest updaterate
;
#X text 206 106 2nd outlet bang when ready;
#X text 299 42 \$2 - max message length;
#X obj 60 -186 tgl 15 0 empty empty empty 17 7 0 10 -262144 -1 -1 1
1;
#X obj 226 183 writesf~;
#X msg 410 166 start;
#X msg 450 166 stop;
#X obj 175 104 bng 15 250 50 0 empty empty empty 17 7 0 10 -262144
-1 -1;
#X msg 280 166 open /tmp/serial.wav;
#X text 1 -257;
#X obj 60 92 f0_serial 9600 1;
#X obj 60 -42 sin;
#X obj 59 -89 f;
#X obj 88 -90 + 0.1;
#X obj 59 -14 * 127;
#X floatatom 59 34 5 0 0 0 - - -;
#X obj 56 10 + 127;
#X obj 62 64 int;
#X obj 60 -169 metro 100;
#X connect 1 0 0 1;
#X connect 1 0 0 0;
#X connect 2 0 1 1;
#X connect 9 0 24 0;
#X connect 11 0 10 0;
#X connect 12 0 10 0;
#X connect 14 0 10 0;
#X connect 16 0 1 0;
#X connect 16 0 10 0;
#X connect 16 1 13 0;
#X connect 17 0 20 0;
#X connect 18 0 19 0;
#X connect 18 0 17 0;
#X connect 19 0 18 1;
#X connect 20 0 22 0;
#X connect 21 0 23 0;
#X connect 22 0 21 0;
#X connect 23 0 16 0;
#X connect 24 0 18 0;
