#N canvas 109 390 433 430 10;
#X msg 106 43 devices;
#X obj 47 78 comport 12 38400;
#X text 162 79 change to match arduino index;
#X obj 47 133 match 2 nn 3 nn;
#X obj 47 154 unpack f f f f;
#X obj 74 187 change;
#X obj 128 187 change;
#X text 160 42 click to see serial ports in pd window;
#X floatatom 74 206 5 0 0 0 - - -;
#X floatatom 128 206 5 0 0 0 - - -;
#X obj 25 271 t f f f f f f f f;
#X obj 13 307 & 1;
#X obj 13 326 != 1;
#X obj 13 350 tgl 15 0 empty empty empty 17 7 0 10 -262144 -1 -1 0
1;
#X obj 43 350 tgl 15 0 empty empty empty 17 7 0 10 -262144 -1 -1 0
1;
#X obj 73 350 tgl 15 0 empty empty empty 17 7 0 10 -262144 -1 -1 0
1;
#X obj 103 350 tgl 15 0 empty empty empty 17 7 0 10 -262144 -1 -1 0
1;
#X obj 133 350 tgl 15 0 empty empty empty 17 7 0 10 -262144 -1 -1 0
1;
#X obj 169 350 tgl 15 0 empty empty empty 17 7 0 10 -262144 -1 -1 0
1;
#X obj 205 350 tgl 15 0 empty empty empty 17 7 0 10 -262144 -1 -1 0
1;
#X obj 241 350 tgl 15 0 empty empty empty 17 7 0 10 -262144 -1 -1 0
1;
#X obj 43 307 & 2;
#X obj 43 326 != 2;
#X obj 73 307 & 4;
#X obj 73 326 != 4;
#X obj 103 307 & 8;
#X obj 103 326 != 8;
#X obj 133 307 & 16;
#X obj 133 326 != 16;
#X obj 169 307 & 32;
#X obj 169 326 != 32;
#X obj 205 307 & 64;
#X obj 205 326 != 64;
#X obj 241 307 & 128;
#X obj 241 326 != 128;
#X text 17 6 use with pd-extended and 'arduino_digital_read.ino';
#X obj 283 307 & 1;
#X obj 283 326 != 1;
#X obj 283 350 tgl 15 0 empty empty empty 17 7 0 10 -262144 -1 -1 0
1;
#X obj 313 350 tgl 15 0 empty empty empty 17 7 0 10 -262144 -1 -1 0
1;
#X obj 313 307 & 2;
#X obj 313 326 != 2;
#X obj 295 271 t f f;
#X connect 0 0 1 0;
#X connect 1 0 3 0;
#X connect 3 0 4 0;
#X connect 4 1 5 0;
#X connect 4 3 6 0;
#X connect 5 0 8 0;
#X connect 6 0 9 0;
#X connect 8 0 10 0;
#X connect 9 0 42 0;
#X connect 10 0 11 0;
#X connect 10 1 21 0;
#X connect 10 2 23 0;
#X connect 10 3 25 0;
#X connect 10 4 27 0;
#X connect 10 5 29 0;
#X connect 10 6 31 0;
#X connect 10 7 33 0;
#X connect 11 0 12 0;
#X connect 12 0 13 0;
#X connect 21 0 22 0;
#X connect 22 0 14 0;
#X connect 23 0 24 0;
#X connect 24 0 15 0;
#X connect 25 0 26 0;
#X connect 26 0 16 0;
#X connect 27 0 28 0;
#X connect 28 0 17 0;
#X connect 29 0 30 0;
#X connect 30 0 18 0;
#X connect 31 0 32 0;
#X connect 32 0 19 0;
#X connect 33 0 34 0;
#X connect 34 0 20 0;
#X connect 36 0 37 0;
#X connect 37 0 38 0;
#X connect 40 0 41 0;
#X connect 41 0 39 0;
#X connect 42 0 36 0;
#X connect 42 1 40 0;
