#N canvas 707 22 568 624 16;
#X obj 103 21 gemhead;
#X msg 104 477 create;
#X msg 113 516 1;
#X text 198 474 first create \, then start;
#X obj 103 71 pix_video;
#X obj 103 160 pix_texture;
#X obj 77 567 gemwin;
#X floatatom 195 357 5 0 0 0 - - -;
#X floatatom 152 263 5 0 0 0 - - -;
#X obj 122 311 translateXYZ;
#X floatatom 212 264 5 0 0 0 - - -;
#X floatatom 269 266 5 0 0 0 - - -;
#X obj 141 386 rectangle 4 3;
#X floatatom 260 353 5 0 0 0 - - -;
#X obj 106 110 pix_delay 200;
#X msg 269 60 199;
#X obj 267 26 loadbang;
#X floatatom 262 97 5 0 0 0 - - -;
#X msg 165 562 frame 60;
#X text 257 561 set framerate to 60fps;
#X msg 348 72 dimen 640 480;
#X text 293 129 200/60= 3.333 sec delay;
#X connect 0 0 4 0;
#X connect 1 0 6 0;
#X connect 2 0 6 0;
#X connect 4 0 14 0;
#X connect 5 0 9 0;
#X connect 7 0 12 1;
#X connect 8 0 9 1;
#X connect 9 0 12 0;
#X connect 10 0 9 2;
#X connect 11 0 9 3;
#X connect 13 0 12 2;
#X connect 14 0 5 0;
#X connect 15 0 17 0;
#X connect 16 0 15 0;
#X connect 17 0 14 1;
#X connect 18 0 6 0;
#X connect 20 0 4 0;
