#N canvas 707 22 830 544 16;
#X obj 103 65 gemhead;
#X msg 130 414 create;
#X msg 139 453 1;
#X text 224 411 first create \, then start;
#X obj 103 115 pix_video;
#X obj 103 158 pix_texture;
#X obj 103 504 gemwin;
#X obj 45 290 translateXYZ;
#X obj 42 328 circle 2;
#X floatatom 58 259 5 0 0 0 - - -;
#X floatatom 115 259 5 0 0 0 - - -;
#X floatatom 170 261 5 0 0 0 - - -;
#X msg 87 229 1.667;
#X obj 232 297 translateXYZ;
#X obj 229 335 circle 2;
#X floatatom 245 266 5 0 0 0 - - -;
#X floatatom 302 266 5 0 0 0 - - -;
#X floatatom 357 268 5 0 0 0 - - -;
#X msg 243 219 -3;
#X obj 398 110 loadbang;
#X obj 429 298 translateXYZ;
#X obj 426 336 circle 2;
#X floatatom 442 267 5 0 0 0 - - -;
#X floatatom 499 267 5 0 0 0 - - -;
#X floatatom 554 269 5 0 0 0 - - -;
#X msg 534 221 -2;
#X msg 487 221 -2;
#X msg 440 220 4.5;
#X obj 631 294 translateXYZ;
#X obj 628 332 circle 2;
#X floatatom 644 263 5 0 0 0 - - -;
#X floatatom 701 263 5 0 0 0 - - -;
#X floatatom 756 265 5 0 0 0 - - -;
#X msg 642 216 -8;
#X msg 689 217 8;
#X msg 736 217 -3;
#X msg 204 73 dimen 640 480;
#X obj 206 43 loadbang;
#X connect 0 0 4 0;
#X connect 1 0 6 0;
#X connect 2 0 6 0;
#X connect 4 0 5 0;
#X connect 5 0 7 0;
#X connect 5 0 13 0;
#X connect 5 0 20 0;
#X connect 5 0 28 0;
#X connect 7 0 8 0;
#X connect 9 0 7 1;
#X connect 10 0 7 2;
#X connect 11 0 7 3;
#X connect 12 0 9 0;
#X connect 12 0 10 0;
#X connect 13 0 14 0;
#X connect 15 0 13 1;
#X connect 16 0 13 2;
#X connect 17 0 13 3;
#X connect 18 0 15 0;
#X connect 18 0 16 0;
#X connect 19 0 18 0;
#X connect 19 0 12 0;
#X connect 19 0 27 0;
#X connect 19 0 26 0;
#X connect 19 0 25 0;
#X connect 19 0 33 0;
#X connect 19 0 34 0;
#X connect 19 0 35 0;
#X connect 20 0 21 0;
#X connect 22 0 20 1;
#X connect 23 0 20 2;
#X connect 24 0 20 3;
#X connect 25 0 24 0;
#X connect 26 0 23 0;
#X connect 27 0 22 0;
#X connect 28 0 29 0;
#X connect 30 0 28 1;
#X connect 31 0 28 2;
#X connect 32 0 28 3;
#X connect 33 0 30 0;
#X connect 34 0 31 0;
#X connect 35 0 32 0;
#X connect 36 0 4 0;
#X connect 37 0 36 0;
