#N canvas 707 22 816 810 16;
#X obj 103 65 gemhead;
#X msg 43 272 create;
#X msg 52 311 1;
#X text 137 269 first create \, then start;
#X obj 103 115 pix_video;
#X obj 103 158 pix_texture;
#X obj 16 362 gemwin;
#X obj 248 676 translateXYZ;
#X floatatom 261 645 5 0 0 0 - - -;
#X floatatom 318 645 5 0 0 0 - - -;
#X floatatom 373 647 5 0 0 0 - - -;
#X msg 204 73 dimen 640 480;
#X obj 206 43 loadbang;
#X obj 247 614 separator;
#X obj 245 714 sphere 1 100;
#X obj 480 317 + 1;
#X obj 439 285 t b;
#X floatatom 441 346 5 0 0 0 - - -;
#X obj 440 315 f;
#X obj 275 499 t f f;
#X obj 275 538 sin;
#X obj 314 537 cos;
#X obj 275 575 * 1.5;
#X obj 336 572 * 1.5;
#X floatatom 439 401 5 0 0 0 - - -;
#X obj 439 374 / 30;
#X obj 44 678 translateXYZ;
#X floatatom 57 647 5 0 0 0 - - -;
#X floatatom 114 647 5 0 0 0 - - -;
#X floatatom 169 649 5 0 0 0 - - -;
#X obj 43 616 separator;
#X obj 41 716 sphere 1 100;
#X obj 71 501 t f f;
#X obj 71 540 sin;
#X obj 110 539 cos;
#X obj 71 577 * 1.5;
#X obj 132 574 * 1.5;
#X obj 71 471 + 0;
#X obj 275 469 + 1.5708;
#X obj 433 688 translateXYZ;
#X floatatom 446 657 5 0 0 0 - - -;
#X floatatom 503 657 5 0 0 0 - - -;
#X floatatom 558 659 5 0 0 0 - - -;
#X obj 432 626 separator;
#X obj 430 726 sphere 1 100;
#X obj 460 511 t f f;
#X obj 460 550 sin;
#X obj 499 549 cos;
#X obj 460 587 * 1.5;
#X obj 521 584 * 1.5;
#X obj 460 481 + 3.1416;
#X obj 624 695 translateXYZ;
#X floatatom 637 664 5 0 0 0 - - -;
#X floatatom 694 664 5 0 0 0 - - -;
#X floatatom 749 666 5 0 0 0 - - -;
#X obj 623 633 separator;
#X obj 621 733 sphere 1 100;
#X obj 651 518 t f f;
#X obj 651 557 sin;
#X obj 690 556 cos;
#X obj 651 594 * 1.5;
#X obj 712 591 * 1.5;
#X obj 651 488 + 4.7124;
#X floatatom 522 346 5 0 0 0 - - -;
#X text 584 346 speed;
#X msg 94 368 frame 60;
#X obj 97 343 loadbang;
#X text 189 367 set fps to 60;
#X floatatom 105 775 5 0 0 0 - - -;
#X text 162 769 size;
#X connect 0 0 4 0;
#X connect 0 0 16 0;
#X connect 1 0 6 0;
#X connect 2 0 6 0;
#X connect 4 0 5 0;
#X connect 5 0 13 0;
#X connect 5 0 30 0;
#X connect 5 0 43 0;
#X connect 5 0 55 0;
#X connect 7 0 14 0;
#X connect 8 0 7 1;
#X connect 9 0 7 2;
#X connect 10 0 7 3;
#X connect 11 0 4 0;
#X connect 12 0 11 0;
#X connect 13 0 7 0;
#X connect 15 0 18 1;
#X connect 16 0 18 0;
#X connect 17 0 25 0;
#X connect 18 0 15 0;
#X connect 18 0 17 0;
#X connect 19 0 20 0;
#X connect 19 1 21 0;
#X connect 20 0 22 0;
#X connect 21 0 23 0;
#X connect 22 0 8 0;
#X connect 23 0 9 0;
#X connect 24 0 37 0;
#X connect 24 0 38 0;
#X connect 24 0 50 0;
#X connect 24 0 62 0;
#X connect 25 0 24 0;
#X connect 26 0 31 0;
#X connect 27 0 26 1;
#X connect 28 0 26 2;
#X connect 29 0 26 3;
#X connect 30 0 26 0;
#X connect 32 0 33 0;
#X connect 32 1 34 0;
#X connect 33 0 35 0;
#X connect 34 0 36 0;
#X connect 35 0 27 0;
#X connect 36 0 28 0;
#X connect 37 0 32 0;
#X connect 38 0 19 0;
#X connect 39 0 44 0;
#X connect 40 0 39 1;
#X connect 41 0 39 2;
#X connect 42 0 39 3;
#X connect 43 0 39 0;
#X connect 45 0 46 0;
#X connect 45 1 47 0;
#X connect 46 0 48 0;
#X connect 47 0 49 0;
#X connect 48 0 40 0;
#X connect 49 0 41 0;
#X connect 50 0 45 0;
#X connect 51 0 56 0;
#X connect 52 0 51 1;
#X connect 53 0 51 2;
#X connect 54 0 51 3;
#X connect 55 0 51 0;
#X connect 57 0 58 0;
#X connect 57 1 59 0;
#X connect 58 0 60 0;
#X connect 59 0 61 0;
#X connect 60 0 52 0;
#X connect 61 0 53 0;
#X connect 62 0 57 0;
#X connect 63 0 25 1;
#X connect 65 0 6 0;
#X connect 66 0 65 0;
#X connect 68 0 31 1;
#X connect 68 0 14 1;
#X connect 68 0 44 1;
#X connect 68 0 56 1;
