#N canvas 560 22 826 660 16;
#X obj 79 -76 gemhead;
#X msg 130 414 create;
#X msg 139 453 1;
#X text 224 411 first create \, then start;
#X obj 79 -26 pix_video;
#X obj 79 2 pix_texture;
#X obj 103 504 gemwin;
#X obj 45 290 translateXYZ;
#X floatatom 58 259 5 0 0 0 - - -;
#X floatatom 115 259 5 0 0 0 - - -;
#X floatatom 170 261 5 0 0 0 - - -;
#X obj 232 297 translateXYZ;
#X floatatom 245 266 5 0 0 0 - - -;
#X floatatom 302 266 5 0 0 0 - - -;
#X floatatom 357 268 5 0 0 0 - - -;
#X obj 578 116 loadbang;
#X obj 439 306 translateXYZ;
#X floatatom 452 275 5 0 0 0 - - -;
#X floatatom 509 275 5 0 0 0 - - -;
#X floatatom 564 277 5 0 0 0 - - -;
#X obj 641 302 translateXYZ;
#X floatatom 654 271 5 0 0 0 - - -;
#X floatatom 711 271 5 0 0 0 - - -;
#X floatatom 758 269 5 0 0 0 - - -;
#X msg 184 -75 dimen 640 480;
#X obj 186 -105 loadbang;
#X obj 527 -118 t b;
#X obj 527 18 sin;
#X obj 527 -88 f;
#X obj 569 -87 + 1;
#X floatatom 527 -58 5 0 0 0 - - -;
#X obj 527 -10 / 40;
#X obj 581 18 sin;
#X obj 636 21 sin;
#X obj 699 24 sin;
#X obj 582 -11 / 30;
#X obj 636 -7 / 20;
#X obj 699 -4 / 10;
#X obj 79 47 separator;
#X obj 180 50 separator;
#X obj 284 52 separator;
#X obj 383 46 separator;
#X msg 677 173 3;
#X msg 627 175 1;
#X msg 576 173 -1;
#X msg 533 169 3;
#X obj 520 62 + 2;
#X obj 576 57 + 2;
#X obj 635 57 + 2;
#X obj 708 62 + 2;
#X obj 42 327 cube 2;
#X obj 229 334 cube 2;
#X obj 436 344 cube 2;
#X obj 637 339 cube 2;
#X connect 0 0 4 0;
#X connect 0 0 26 0;
#X connect 1 0 6 0;
#X connect 2 0 6 0;
#X connect 4 0 5 0;
#X connect 5 0 38 0;
#X connect 5 0 39 0;
#X connect 5 0 40 0;
#X connect 5 0 41 0;
#X connect 7 0 50 0;
#X connect 8 0 7 1;
#X connect 9 0 7 2;
#X connect 10 0 7 3;
#X connect 11 0 51 0;
#X connect 12 0 11 1;
#X connect 13 0 11 2;
#X connect 14 0 11 3;
#X connect 15 0 43 0;
#X connect 15 0 42 0;
#X connect 15 0 44 0;
#X connect 15 0 45 0;
#X connect 16 0 52 0;
#X connect 17 0 16 1;
#X connect 18 0 16 2;
#X connect 19 0 16 3;
#X connect 20 0 53 0;
#X connect 21 0 20 1;
#X connect 22 0 20 2;
#X connect 23 0 20 3;
#X connect 24 0 4 0;
#X connect 25 0 24 0;
#X connect 26 0 28 0;
#X connect 27 0 46 0;
#X connect 28 0 29 0;
#X connect 28 0 30 0;
#X connect 29 0 28 1;
#X connect 30 0 31 0;
#X connect 30 0 35 0;
#X connect 30 0 36 0;
#X connect 30 0 37 0;
#X connect 31 0 27 0;
#X connect 32 0 47 0;
#X connect 33 0 48 0;
#X connect 34 0 49 0;
#X connect 35 0 32 0;
#X connect 36 0 33 0;
#X connect 37 0 34 0;
#X connect 38 0 7 0;
#X connect 39 0 11 0;
#X connect 40 0 16 0;
#X connect 41 0 20 0;
#X connect 42 0 21 0;
#X connect 43 0 17 0;
#X connect 44 0 12 0;
#X connect 45 0 8 0;
#X connect 46 0 10 0;
#X connect 46 0 9 0;
#X connect 47 0 14 0;
#X connect 47 0 13 0;
#X connect 48 0 19 0;
#X connect 48 0 18 0;
#X connect 49 0 23 0;
#X connect 49 0 22 0;
