#N canvas 707 22 520 560 16;
#X obj 103 65 gemhead;
#X msg 130 414 create;
#X msg 139 453 1;
#X text 224 411 first create \, then start;
#X obj 103 115 pix_video;
#X obj 103 158 pix_texture;
#X floatatom 182 202 5 0 0 0 - - -;
#X msg 188 278 draw point;
#X msg 190 314 draw lines;
#X msg 191 347 draw fill;
#X obj 103 504 gemwin;
#X floatatom 402 183 5 0 0 0 - - -;
#X obj 319 227 cube -5;
#X obj 99 246 circle -3;
#X connect 0 0 4 0;
#X connect 1 0 10 0;
#X connect 2 0 10 0;
#X connect 4 0 5 0;
#X connect 5 0 12 0;
#X connect 5 0 13 0;
#X connect 6 0 13 1;
#X connect 7 0 13 0;
#X connect 8 0 13 0;
#X connect 9 0 13 0;
#X connect 11 0 12 1;
