#N canvas 719 82 750 597 16;
#X obj 85 54 square~ 3;
#X obj 87 90 *~ 700;
#X obj 87 125 +~ 100;
#X obj 55 469 osc~;
#X text 92 155 signal now between 100 and 800;
#X obj 209 263 *~ 700;
#X obj 209 294 +~ 100;
#X obj 207 226 square~ 2.9;
#X obj 381 308 *~ 700;
#X obj 402 520 +~ 100;
#X obj 400 452 square~ 0.1;
#X obj 402 489 *~ 100;
#X obj 601 369 *~ 450;
#X obj 601 400 +~ 204;
#X obj 381 339 +~ 22;
#X floatatom 90 17 5 0 0 0 - - -;
#X obj 198 20 vsl 15 128 0 127 0 0 empty empty empty 0 -9 0 10 -262144
-1 -1 0 1;
#X obj 52 512 *~ 0.1;
#X obj 54 551 dac~;
#X obj 382 269 line~;
#X msg 384 239 10 \, 0 1000;
#X obj 601 337 phasor~ 1.5;
#X text 495 236 click this one;
#X connect 0 0 1 0;
#X connect 1 0 2 0;
#X connect 2 0 3 0;
#X connect 3 0 17 0;
#X connect 5 0 6 0;
#X connect 6 0 3 0;
#X connect 7 0 5 0;
#X connect 8 0 14 0;
#X connect 9 0 3 0;
#X connect 10 0 11 0;
#X connect 11 0 9 0;
#X connect 12 0 13 0;
#X connect 13 0 3 0;
#X connect 14 0 3 0;
#X connect 15 0 0 0;
#X connect 16 0 1 1;
#X connect 17 0 18 0;
#X connect 17 0 18 1;
#X connect 19 0 8 0;
#X connect 20 0 19 0;
#X connect 21 0 12 0;
