#N canvas 536 159 839 587 16;
#X floatatom 47 91 5 0 0 0 - - -;
#X obj 107 469 receive~ here;
#X obj 41 203 send~ here;
#X obj 111 507 *~ 0.1;
#X obj 110 547 dac~;
#X obj 46 130 square~ 500;
#X floatatom 175 89 5 0 0 0 - - -;
#X obj 169 201 send~ here;
#X obj 174 128 square~ 500;
#X floatatom 312 88 5 0 0 0 - - -;
#X obj 306 200 send~ here;
#X obj 311 127 square~ 500;
#X floatatom 439 84 5 0 0 0 - - -;
#X obj 433 196 send~ here;
#X obj 438 123 square~ 500;
#X floatatom 567 82 5 0 0 0 - - -;
#X obj 561 194 send~ here;
#X obj 566 121 square~ 500;
#X floatatom 704 81 5 0 0 0 - - -;
#X obj 698 193 send~ here;
#X obj 703 120 square~ 500;
#X obj 121 291 send test;
#X obj 118 333 receive test;
#X floatatom 124 262 5 0 0 0 - - -;
#X floatatom 122 369 5 0 0 0 - - -;
#X obj 198 364 receive test;
#X floatatom 202 400 5 0 0 0 - - -;
#X obj 53 16 loadbang;
#X msg 54 42 134;
#X obj 187 12 loadbang;
#X msg 187 39 200;
#X text 284 20 use loadbang and message to store values;
#X connect 0 0 5 0;
#X connect 1 0 3 0;
#X connect 3 0 4 0;
#X connect 3 0 4 1;
#X connect 5 0 2 0;
#X connect 6 0 8 0;
#X connect 8 0 7 0;
#X connect 9 0 11 0;
#X connect 11 0 10 0;
#X connect 12 0 14 0;
#X connect 14 0 13 0;
#X connect 15 0 17 0;
#X connect 17 0 16 0;
#X connect 18 0 20 0;
#X connect 20 0 19 0;
#X connect 22 0 24 0;
#X connect 23 0 21 0;
#X connect 25 0 26 0;
#X connect 27 0 28 0;
#X connect 28 0 0 0;
#X connect 29 0 30 0;
#X connect 30 0 6 0;
