#N canvas 642 22 825 580 16;
#X obj 21 23 vsl 15 128 1.27 127 1 0 empty empty test 0 -9 0 10 -4034
-1 -1 0 1;
#X obj 59 216 * 20;
#X obj 50 280 osc~;
#X floatatom 47 250 5 0 0 0 - - -;
#X obj 105 429 *~ 0.1;
#X obj 103 470 dac~;
#X obj 128 63 vsl 15 128 0 127 0 0 empty empty empty 0 -9 0 10 -262144
-1 -1 0 1;
#X obj 127 212 * 20;
#X obj 118 276 osc~;
#X floatatom 122 244 5 0 0 0 - - -;
#X obj 207 64 vsl 15 128 0 127 0 0 empty empty empty 0 -9 0 10 -262144
-1 -1 0 1;
#X obj 206 213 * 20;
#X obj 197 277 osc~;
#X floatatom 201 245 5 0 0 0 - - -;
#X obj 281 65 vsl 15 128 0 127 0 0 empty empty empty 0 -9 0 10 -262144
-1 -1 0 1;
#X obj 280 214 * 20;
#X obj 271 278 osc~;
#X floatatom 275 246 5 0 0 0 - - -;
#X obj 369 61 vsl 15 128 0 127 0 0 empty empty empty 0 -9 0 10 -262144
-1 -1 0 1;
#X obj 368 210 * 20;
#X obj 359 274 osc~;
#X floatatom 363 242 5 0 0 0 - - -;
#X obj 452 69 vsl 15 128 0 127 0 0 empty empty empty 0 -9 0 10 -262144
-1 -1 0 1;
#X obj 451 218 * 20;
#X obj 442 282 osc~;
#X floatatom 446 250 5 0 0 0 - - -;
#X obj 520 65 vsl 15 128 0 127 0 0 empty empty empty 0 -9 0 10 -262144
-1 -1 0 1;
#X obj 519 214 * 20;
#X obj 510 278 osc~;
#X floatatom 514 246 5 0 0 0 - - -;
#X obj 599 66 vsl 15 128 0 127 0 0 empty empty empty 0 -9 0 10 -262144
-1 -1 0 1;
#X obj 598 215 * 20;
#X obj 589 279 osc~;
#X floatatom 593 247 5 0 0 0 - - -;
#X obj 673 67 vsl 15 128 0 127 0 0 empty empty empty 0 -9 0 10 -262144
-1 -1 0 1;
#X obj 672 216 * 20;
#X obj 663 280 osc~;
#X floatatom 667 248 5 0 0 0 - - -;
#X obj 761 63 vsl 15 128 0 127 0 0 empty empty empty 0 -9 0 10 -262144
-1 -1 0 1;
#X obj 760 212 * 20;
#X obj 751 276 osc~;
#X floatatom 755 244 5 0 0 0 - - -;
#X text 227 485 Ndef(test3 \, |a= 400 \, b= 400 \, c= 400 \, d= 400|
Mix(SinOsc.ar([a \, b \, c \, d]))*0.1).play \; Ndef(test3).gui;
#X floatatom 195 408 5 0 0 0 - - -;
#X text 261 407 shift click and drag carefully to set volume;
#X connect 0 0 1 0;
#X connect 1 0 3 0;
#X connect 2 0 4 0;
#X connect 3 0 2 0;
#X connect 4 0 5 0;
#X connect 4 0 5 1;
#X connect 6 0 7 0;
#X connect 7 0 9 0;
#X connect 8 0 4 0;
#X connect 9 0 8 0;
#X connect 10 0 11 0;
#X connect 11 0 13 0;
#X connect 12 0 4 0;
#X connect 13 0 12 0;
#X connect 14 0 15 0;
#X connect 15 0 17 0;
#X connect 16 0 4 0;
#X connect 17 0 16 0;
#X connect 18 0 19 0;
#X connect 19 0 21 0;
#X connect 20 0 4 0;
#X connect 21 0 20 0;
#X connect 22 0 23 0;
#X connect 23 0 25 0;
#X connect 24 0 4 0;
#X connect 25 0 24 0;
#X connect 26 0 27 0;
#X connect 27 0 29 0;
#X connect 28 0 4 0;
#X connect 29 0 28 0;
#X connect 30 0 31 0;
#X connect 31 0 33 0;
#X connect 32 0 4 0;
#X connect 33 0 32 0;
#X connect 34 0 35 0;
#X connect 35 0 37 0;
#X connect 36 0 4 0;
#X connect 37 0 36 0;
#X connect 38 0 39 0;
#X connect 39 0 41 0;
#X connect 40 0 4 0;
#X connect 41 0 40 0;
#X connect 43 0 4 1;
